# xmcd CD database file
#
# Track frame offsets:
#	150
#	13240
#	31205
#	48710
#	64335
#	77775
#	88972
#	108952
#	120307
#	136182
#	151412
#	169527
#	184085
#
# Disc length: 2680 seconds
#
# Revision: 0
# Processed by: cddbd v1.5.1PL0 Copyright (c) Steve Scherf et al.
# Submitted via: CDex 1.50beta9
#
DISCID=a70a760d
DTITLE=Thermadore - Monkey on Rico(Japan Ver.)
DYEAR=1996
DGENRE=Rock
TTITLE0=Three Days
TTITLE1=Amerasian
TTITLE2=Missing
TTITLE3=Go
TTITLE4=Spinning
TTITLE5=Candywrapper
TTITLE6=Pushing
TTITLE7=Punk Rock Beating
TTITLE8=Santa Rosa
TTITLE9=Anton
TTITLE10=Everything's Alright
TTITLE11=Took You Away(Bonus Track for Japan)
TTITLE12=Spinning(Acoustic Version)(Bonus Track for Japan)
EXTD=YEAR: 1996
EXTT0=
EXTT1=
EXTT2=
EXTT3=
EXTT4=
EXTT5=
EXTT6=
EXTT7=
EXTT8=
EXTT9=
EXTT10=
EXTT11=
EXTT12=
PLAYORDER=
